# xmcd
# 
# Track frame offsets:
#     150
#     20835
#     39600
#     54677
#     75737
#     113365
#     127830
#     141430
#     161872
#     179690
#     213815
# 
# Disc length: 3124
# 
# Revision: 1
# Processed by: cddbd v1.5.2PL0 Copyright (c) Steve Scherf et al.
# Submitted via: fre:ac v1.0.31
# 
DISCID=990c320b
DTITLE=Various Artist - The Iron Maiden Tribute
DYEAR=2000
DGENRE=Metal
TTITLE0=Sebastian Bach - Children of The Damned
TTITLE1=Ian Perry - Kamelot - Flight Of Icarus
TTITLE2=Wardog - Purgatory
TTITLE3=Azrael - The Evil That Men Do
TTITLE4=Eleventh Hour - Alexander The Great
TTITLE5=Iron Savior - Running Free
TTITLE6=Grass - Wrathchild
TTITLE7=Cosmosquad - Ray Alder - Murders In The Rue Morgue
TTITLE8=John West - Chris Caffery - Run To The Hills
TTITLE9=Ankhara - Phantom Of The Opera
TTITLE10=Solace - Another Life
EXTD=
EXTT0=
EXTT1=
EXTT2=
EXTT3=
EXTT4=
EXTT5=
EXTT6=
EXTT7=
EXTT8=
EXTT9=
EXTT10=
PLAYORDER=
